<svg width="20" height="20" viewBox="0 0 20 20" fill="none" xmlns="http://www.w3.org/2000/svg">
<g clip-path="url(#clip0_950_11778)">
<path d="M10 1.875V3.75" stroke="#F7F1E7" stroke-width="0.9375" stroke-linecap="round" stroke-linejoin="round"></path>
<path d="M10 16.25V18.125" stroke="#F7F1E7" stroke-width="0.9375" stroke-linecap="round" stroke-linejoin="round"></path>
<path d="M14.375 6.875C14.375 6.46462 14.2942 6.05826 14.1371 5.67911C13.9801 5.29997 13.7499 4.95547 13.4597 4.66529C13.1695 4.37511 12.825 4.14492 12.4459 3.98788C12.0667 3.83083 11.6604 3.75 11.25 3.75H8.75C7.9212 3.75 7.12634 4.07924 6.54029 4.66529C5.95424 5.25134 5.625 6.0462 5.625 6.875C5.625 7.7038 5.95424 8.49866 6.54029 9.08471C7.12634 9.67076 7.9212 10 8.75 10H11.875C12.7038 10 13.4987 10.3292 14.0847 10.9153C14.6708 11.5013 15 12.2962 15 13.125C15 13.9538 14.6708 14.7487 14.0847 15.3347C13.4987 15.9208 12.7038 16.25 11.875 16.25H8.125C7.2962 16.25 6.50134 15.9208 5.91529 15.3347C5.32924 14.7487 5 13.9538 5 13.125" stroke="#F7F1E7" stroke-width="0.9375" stroke-linecap="round" stroke-linejoin="round"></path>
</g>
<defs>
<clipPath id="clip0_950_11778">
<rect width="20" height="20" fill="white"></rect>
</clipPath>
</defs>
</svg>