<?xml version="1.0" encoding="UTF-8"?>
<svg width="159px" height="33px" viewBox="0 0 159 33" version="1.1" xmlns="http://www.w3.org/2000/svg" xmlns:xlink="http://www.w3.org/1999/xlink">
    <title>Logo</title>
    <defs>
        <polygon id="path-1" points="0.1396656 0.0425660066 23.3625696 0.0425660066 23.3625696 9.84437376 0.1396656 9.84437376 0.1396656 0.0425660066"></polygon>
        <polygon id="path-3" points="23.3625696 17.1534653 0.1396656 17.1534653 0.1396656 0.0836072607 23.3625696 0.0836072607"></polygon>
        <polygon id="path-5" points="0 32.0407673 158.914458 32.0407673 158.914458 0.317656766 0 0.317656766"></polygon>
    </defs>
    <g id="Symbols" stroke="none" stroke-width="1" fill="none" fill-rule="evenodd">
        <g id="Desktop-Nav" transform="translate(-81.000000, -38.000000)">
            <g transform="translate(-21.000000, 0.000000)" id="Main-Nav">
                <g transform="translate(0.000000, 28.000000)">
                    <g id="Bit/Logo/Logo-Primary" transform="translate(102.000000, 10.000000)">
                        <g id="Group-3" transform="translate(133.878000, 0.275091)">
                            <mask id="mask-2" fill="white">
                                <use xlink:href="#path-1"></use>
                            </mask>
                            <g id="Clip-2"></g>
                            <path d="M2.3166936,7.4165231 L2.3166936,2.80414686 L11.7507996,5.07793399 L21.1852236,2.80414686 L21.1852236,7.23990594 C22.0810296,7.71067327 22.8315096,8.41809488 23.3625696,9.280533 L23.3625696,0.0424389439 L11.7507996,2.84067739 L0.1396656,0.0424389439 L0.1396656,9.84437376 C0.6144396,8.83390759 1.3747776,7.99052888 2.3166936,7.4165231" id="Fill-1" fill="#45AFC5" mask="url(#mask-2)"></path>
                        </g>
                        <g id="Group-6" transform="translate(133.878000, 14.887302)">
                            <mask id="mask-4" fill="white">
                                <use xlink:href="#path-3"></use>
                            </mask>
                            <g id="Clip-5"></g>
                            <path d="M21.1852236,2.69029868 L21.1852236,4.78556271 C21.1852236,10.4439827 13.6193676,13.9264538 11.7504816,14.7888919 C9.8800056,13.9283597 2.3166936,10.4573243 2.3166936,4.78556271 L2.3166936,2.5130462 C1.3747776,1.93872277 0.6144396,1.09439109 0.1396656,0.0836072607 L0.1396656,4.78556271 C0.1396656,8.73435396 2.8353516,11.4716023 5.5838256,13.6030792 C8.3208516,15.726297 11.1097116,16.8908267 11.3380356,16.9842178 L11.7511176,17.1535289 L12.1641996,16.9842178 C12.6211656,16.797118 23.3625696,12.66758 23.3625696,4.78556271 L23.3625696,0.647765677 C22.8315096,1.51052145 22.0810296,2.21889604 21.1852236,2.69029868" id="Fill-4" fill="#45AFC5" mask="url(#mask-4)"></path>
                        </g>
                        <path d="M3.18e-05,23.8032285 L1.9579578,20.6384142 C3.2041998,21.8118383 5.7672798,22.9852624 7.9036038,22.9852624 C9.8618478,22.9852624 10.7872278,22.2028738 10.7872278,21.1361823 C10.7872278,19.9624406 9.2207598,19.6422426 7.3340658,19.286467 C4.3792098,18.7175437 0.5695698,17.9707327 0.5695698,13.8456419 C0.5695698,10.9648127 3.0973518,8.43975908 7.6186758,8.43975908 C10.5379158,8.43975908 12.8523198,9.43561304 14.5612518,10.7872426 L12.7454718,13.8812195 C11.7129258,12.7786328 9.7546818,11.8895116 7.6542918,11.8895116 C6.0169098,11.8895116 4.9487478,12.6363226 4.9487478,13.596599 C4.9487478,14.592453 6.3015198,14.8767558 8.2238298,15.2681089 C11.1790038,15.8370322 15.1307898,16.6549983 15.1307898,20.9579769 C15.1307898,24.087849 12.4608618,26.4702748 7.6899078,26.4702748 C4.6994358,26.4702748 1.8158118,25.4747384 3.18e-05,23.8032285" id="Fill-7" fill="#45AFC5"></path>
                        <path d="M27.7518918,21.9183804 L27.7518918,19.7846799 C27.0042738,18.7888259 25.5802698,18.2910578 24.1206498,18.2910578 C22.3404858,18.2910578 20.8808658,19.2157566 20.8808658,20.8872665 C20.8808658,22.4873036 22.3404858,23.4120025 24.1206498,23.4120025 C25.5802698,23.4120025 27.0042738,22.9142343 27.7518918,21.9183804 L27.7518918,21.9183804 Z M27.7518918,26.0437888 L27.7518918,24.2658639 C26.5771998,25.6524356 24.5477238,26.4704018 22.3048698,26.4704018 C19.5633918,26.4704018 16.3236078,24.6210041 16.3236078,20.7802162 C16.3236078,16.7618581 19.5633918,15.2326584 22.3048698,15.2326584 C24.5833398,15.2326584 26.6124978,15.9794695 27.7518918,17.3307814 L27.7518918,15.0191931 C27.7518918,13.2765281 26.2566558,12.1386815 23.9778678,12.1386815 C22.1271078,12.1386815 20.4181758,12.8140198 18.9582378,14.1653317 L17.2496238,11.1425099 C19.3500138,9.29342987 22.0555578,8.43988614 24.7611018,8.43988614 C28.6775898,8.43988614 32.2732158,10.0046634 32.2732158,14.9483556 L32.2732158,26.0437888 L27.7518918,26.0437888 Z" id="Fill-9" fill="#45AFC5"></path>
                        <path d="M36.7063584,26.0437252 L36.7063584,12.8142739 L33.8580324,12.8142739 L33.8580324,8.86643564 L36.7063584,8.86643564 L36.7063584,7.94237211 C36.7063584,4.20799917 39.1272924,1.96756601 42.5095404,1.96756601 C43.7910804,1.96756601 44.9660904,2.25218647 45.7849404,2.6787995 L44.8592424,5.87950908 C44.4674664,5.63014851 43.9335444,5.5237335 43.3993044,5.5237335 C42.1180824,5.5237335 41.2632984,6.37695957 41.2632984,8.01320957 L41.2632984,8.86643564 L44.7520764,8.86643564 L44.7520764,12.8142739 L41.2632984,12.8142739 L41.2632984,26.0437252 L36.7063584,26.0437252 Z" id="Fill-11" fill="#45AFC5"></path>
                        <path d="M54.0979056,12.03179 C51.2851956,12.03179 50.0748876,14.129913 49.8615096,15.8370004 L58.3343016,15.8370004 C58.2277716,14.2013857 57.0886956,12.03179 54.0979056,12.03179 M45.1974036,17.4376729 C45.1974036,12.4584031 48.8642616,8.43972731 54.0979056,8.43972731 C59.2247016,8.43972731 62.7134796,12.2805153 62.7134796,17.8998634 L62.7134796,18.8953998 L49.9324236,18.8953998 C50.2170336,21.0649955 51.9618996,22.8784979 54.8811396,22.8784979 C56.3410776,22.8784979 58.3699176,22.2384196 59.4736956,21.1714105 L61.4675556,24.0878172 C59.7586236,25.6525945 57.0527616,26.4705606 54.3825156,26.4705606 C49.1491896,26.4705606 45.1974036,22.9499707 45.1974036,17.4376729" id="Fill-13" fill="#45AFC5"></path>
                        <polygon id="Fill-15" fill="#45AFC5" points="80.0330952 26.0437252 75.5477052 12.245033 71.0616792 26.0437252 68.3914332 26.0437252 62.9087952 8.86643564 65.6858892 8.86643564 69.8866692 22.5587129 74.4083112 8.86643564 76.6867812 8.86643564 81.2084232 22.5587129 85.4095212 8.86643564 88.1862972 8.86643564 82.7039772 26.0437252"></polygon>
                        <mask id="mask-6" fill="white">
                            <use xlink:href="#path-5"></use>
                        </mask>
                        <g id="Clip-18"></g>
                        <polygon id="Fill-17" fill="#45AFC5" mask="url(#mask-6)" points="90.235362 26.0437252 92.90529 26.0437252 92.90529 8.86643564 90.235362 8.86643564"></polygon>
                        <path d="M95.3264148,23.7677145 L96.7148028,21.8474794 C97.8541968,23.1632137 100.025501,24.3013779 102.375203,24.3013779 C105.009833,24.3013779 106.434155,23.056481 106.434155,21.3493936 C106.434155,19.4644183 104.333447,18.9666502 102.019043,18.3977269 C99.1004388,17.722071 95.7887868,16.9396823 95.7887868,13.3831972 C95.7887868,10.7158333 98.1031908,8.43982261 102.197123,8.43982261 C105.116681,8.43982261 107.181137,9.54240924 108.569843,10.9292987 L107.324237,12.7786964 C106.291055,11.5341172 104.404679,10.6094183 102.197123,10.6094183 C99.8474208,10.6094183 98.3881188,11.7828424 98.3881188,13.3120421 C98.3881188,14.9482921 100.345727,15.410165 102.589217,15.9438284 C105.579689,16.6194843 109.032851,17.4730281 109.032851,21.2785561 C109.032851,24.15875 106.719083,26.4703383 102.268355,26.4703383 C99.4556448,26.4703383 97.0709628,25.6171122 95.3264148,23.7677145" id="Fill-19" fill="#45AFC5" mask="url(#mask-6)"></path>
                        <path d="M118.719926,10.6449641 C115.052114,10.6449641 113.236652,13.738941 113.094824,16.3704097 L124.380326,16.3704097 C124.344392,13.8100961 122.635778,10.6449641 118.719926,10.6449641 M110.282114,17.4374187 C110.282114,12.4584666 113.842124,8.43979084 118.754906,8.43979084 C123.953252,8.43979084 127.014638,12.4943618 127.014638,17.6508841 L127.014638,18.32654 L113.094824,18.32654 C113.307884,21.5628271 115.586354,24.2657686 119.289146,24.2657686 C121.24739,24.2657686 123.240932,23.4830623 124.59434,22.0961729 L125.875562,23.8388379 C124.166312,25.5456077 121.852544,26.4703065 119.040152,26.4703065 C113.948972,26.4703065 110.282114,22.807724 110.282114,17.4374187" id="Fill-20" fill="#45AFC5" mask="url(#mask-6)"></path>
                        <path d="M150.760429,12.5780644 C150.760429,13.5485058 151.540483,14.3356592 152.499889,14.3356592 C153.460249,14.3356592 154.238713,13.5485058 154.238713,12.5780644 C154.238713,11.6073053 153.460249,10.8214224 152.499889,10.8214224 C151.540483,10.8214224 150.760429,11.6073053 150.760429,12.5780644" id="Fill-21" fill="#DC8678" mask="url(#mask-6)"></path>
                        <path d="M137.375714,12.5780644 C137.375714,13.5485058 138.156086,14.3356592 139.115492,14.3356592 C140.075534,14.3356592 140.853998,13.5485058 140.853998,12.5780644 C140.853998,11.6073053 140.075534,10.8214224 139.115492,10.8214224 C138.156086,10.8214224 137.375714,11.6073053 137.375714,12.5780644" id="Fill-22" fill="#DC8678" mask="url(#mask-6)"></path>
                        <path d="M152.472955,7.69720462 C149.830693,7.69720462 147.681331,9.87188284 147.681331,12.5449645 C147.681331,15.2196345 149.830693,17.395901 152.472955,17.395901 C155.115217,17.395901 157.264579,15.2196345 157.264579,12.5449645 C157.264579,9.87188284 155.115217,7.69720462 152.472955,7.69720462 M152.472955,19.043269 C148.920895,19.043269 146.031547,16.1281328 146.031547,12.5449645 C146.031547,8.96338449 148.920895,6.04983663 152.472955,6.04983663 C156.025015,6.04983663 158.914363,8.96338449 158.914363,12.5449645 C158.914363,16.1281328 156.025015,19.043269 152.472955,19.043269" id="Fill-23" fill="#488794" mask="url(#mask-6)"></path>
                        <path d="M139.088398,7.69720462 C136.446454,7.69720462 134.296774,9.87188284 134.296774,12.5449645 C134.296774,15.2196345 136.446454,17.395901 139.088398,17.395901 C141.730342,17.395901 143.880022,15.2196345 143.880022,12.5449645 C143.880022,9.87188284 141.730342,7.69720462 139.088398,7.69720462 M139.088398,19.043269 C135.536338,19.043269 132.64699,16.1281328 132.64699,12.5449645 C132.64699,8.96338449 135.536338,6.04983663 139.088398,6.04983663 C142.640458,6.04983663 145.529806,8.96338449 145.529806,12.5449645 C145.529806,16.1281328 142.640458,19.043269 139.088398,19.043269" id="Fill-24" fill="#488794" mask="url(#mask-6)"></path>
                        <path d="M145.736093,15.0112199 C147.426263,15.0112199 147.420539,16.8612529 147.420539,16.8612529 L145.736093,19.8720037 L144.052919,16.8612529 C144.052919,16.8612529 144.047195,15.0112199 145.736093,15.0112199" id="Fill-25" fill="#488794" mask="url(#mask-6)"></path>
                        <path d="M89.7722904,4.63461221 C89.7722904,3.63907591 90.5908224,2.82110974 91.5527724,2.82110974 C92.5490664,2.82110974 93.3682344,3.63907591 93.3682344,4.63461221 C93.3682344,5.63014851 92.5490664,6.41253713 91.5527724,6.41253713 C90.5908224,6.41253713 89.7722904,5.63014851 89.7722904,4.63461221" id="Fill-26" fill="#DC8678" mask="url(#mask-6)"></path>
                    </g>
                </g>
            </g>
        </g>
    </g>
</svg>