<svg width="36" height="24" viewBox="0 0 36 24" fill="none" xmlns="http://www.w3.org/2000/svg">
<path d="M36 0H0V24H36V0Z" fill="white"/>
<path d="M36 3H0V5.99971H36V3Z" fill="#D80027"/>
<path d="M36 9H0V11.9997H36V9Z" fill="#D80027"/>
<path d="M36 15H0V17.9997H36V15Z" fill="#D80027"/>
<path d="M36 21H0V23.9997H36V21Z" fill="#D80027"/>
<path d="M18 0H0V12.9231H18V0Z" fill="#2E52B2"/>
<path d="M7.02055 5.29395L6.73066 6.18578H5.79297L6.55171 6.73667L6.26181 7.62844L7.02055 7.07754L7.77881 7.62844L7.48898 6.73667L8.24772 6.18578H7.30996L7.02055 5.29395Z" fill="white"/>
<path d="M7.30996 9.40348L7.02055 8.51172L6.73066 9.40348H5.79297L6.55171 9.95445L6.26181 10.8462L7.02055 10.2952L7.77881 10.8462L7.48898 9.95445L8.24772 9.40348H7.30996Z" fill="white"/>
<path d="M3.34519 9.40348L3.05571 8.51172L2.76581 9.40348H1.82812L2.58687 9.95445L2.29697 10.8462L3.05571 10.2952L3.81403 10.8462L3.5242 9.95445L4.2828 9.40348H3.34519Z" fill="white"/>
<path d="M3.05571 5.29395L2.76581 6.18578H1.82812L2.58687 6.73667L2.29697 7.62844L3.05571 7.07754L3.81403 7.62844L3.5242 6.73667L4.2828 6.18578H3.34519L3.05571 5.29395Z" fill="white"/>
<path d="M7.02055 2.0752L6.73066 2.9671H5.79297L6.55171 3.51806L6.26181 4.40983L7.02055 3.85886L7.77881 4.40983L7.48898 3.51806L8.24772 2.9671H7.30996L7.02055 2.0752Z" fill="white"/>
<path d="M3.05571 2.0752L2.76581 2.9671H1.82812L2.58687 3.51806L2.29697 4.40983L3.05571 3.85886L3.81403 4.40983L3.5242 3.51806L4.2828 2.9671H3.34519L3.05571 2.0752Z" fill="white"/>
<path d="M10.9814 5.29395L10.6916 6.18578H9.75391L10.5126 6.73667L10.2228 7.62844L10.9814 7.07754L11.7398 7.62844L11.4499 6.73667L12.2087 6.18578H11.271L10.9814 5.29395Z" fill="white"/>
<path d="M11.271 9.40348L10.9814 8.51172L10.6916 9.40348H9.75391L10.5126 9.95445L10.2228 10.8462L10.9814 10.2952L11.7398 10.8462L11.4499 9.95445L12.2087 9.40348H11.271Z" fill="white"/>
<path d="M15.2357 9.40348L14.9463 8.51172L14.6564 9.40348H13.7188L14.4774 9.95445L14.1875 10.8462L14.9463 10.2952L15.7046 10.8462L15.4147 9.95445L16.1734 9.40348H15.2357Z" fill="white"/>
<path d="M14.9463 5.29395L14.6564 6.18578H13.7188L14.4774 6.73667L14.1875 7.62844L14.9463 7.07754L15.7046 7.62844L15.4147 6.73667L16.1734 6.18578H15.2357L14.9463 5.29395Z" fill="white"/>
<path d="M10.9814 2.0752L10.6916 2.9671H9.75391L10.5126 3.51806L10.2228 4.40983L10.9814 3.85886L11.7398 4.40983L11.4499 3.51806L12.2087 2.9671H11.271L10.9814 2.0752Z" fill="white"/>
<path d="M14.9463 2.0752L14.6564 2.9671H13.7188L14.4774 3.51806L14.1875 4.40983L14.9463 3.85886L15.7046 4.40983L15.4147 3.51806L16.1734 2.9671H15.2357L14.9463 2.0752Z" fill="white"/>
</svg>
